<svg width="195" height="24" viewBox="0 0 195 24" fill="none" xmlns="http://www.w3.org/2000/svg">
<path d="M190.83 9.72824V0.448242H194.574V22.8482H190.83V13.2162H179.15V22.8482H175.406V0.448242H179.15V9.72824H190.83Z" fill="#0044E1"/>
<path d="M163.307 23.296C159.819 23.296 157.002 22.208 154.826 20.032C152.65 17.888 151.562 15.072 151.562 11.648C151.562 8.224 152.65 5.44 154.858 3.264C157.034 1.088 159.85 0 163.274 0C166.57 0 169.354 1.152 171.626 3.456L169.13 5.76C167.562 4.192 165.674 3.424 163.402 3.424C161.002 3.424 159.082 4.192 157.578 5.696C156.074 7.232 155.339 9.216 155.339 11.648C155.339 14.08 156.074 16.064 157.578 17.568C159.082 19.104 161.002 19.872 163.402 19.872C165.738 19.872 167.754 19.072 169.386 17.472L171.786 19.968C169.514 22.176 166.699 23.296 163.307 23.296Z" fill="#0044E1"/>
<path d="M135.65 13.1522V19.4242H148.609V22.8482H131.938V0.448242H148.417V3.84024H135.65V9.82424H147.874V13.1522H135.65Z" fill="#0044E1"/>
<path d="M110.355 0.447754H128.627V3.90376H121.363V22.8478H117.619V3.90376H110.355V0.447754Z" fill="#0044E1"/>
<path d="M109.331 22.8482H104.659L98.163 15.2002H93.619V22.8482H89.875V0.448242H100.371C102.771 0.448242 104.691 1.12024 106.131 2.46424C107.571 3.84024 108.307 5.63224 108.307 7.84024C108.307 11.5522 106.099 14.2082 102.515 14.9762L109.331 22.8482ZM104.595 7.84024C104.595 5.40824 102.995 3.90424 100.339 3.90424H93.587V11.7762H100.339C102.995 11.7762 104.595 10.3042 104.595 7.84024Z" fill="#0044E1"/>
<path d="M72.3995 13.1522V19.4242H85.3595V22.8482H68.6875V0.448242H85.1675V3.84024H72.3995V9.82424H84.6235V13.1522H72.3995Z" fill="#0044E1"/>
<path d="M60.9188 11.2642C62.9668 12.0002 64.4707 14.2402 64.4707 16.6402C64.4707 20.6082 61.5588 22.8482 56.4068 22.8482H45.7188V0.448242H56.4068C60.9828 0.448242 63.7668 2.65624 63.7668 6.36824C63.7668 8.57624 62.7108 10.3682 60.9188 11.2642ZM56.5348 3.77624H49.4308V9.69624H56.5348C58.7428 9.69624 60.0868 8.64024 60.0868 6.75224C60.0868 4.92824 58.7428 3.77624 56.5348 3.77624ZM49.4308 19.4562H56.8228C59.2548 19.4562 60.7588 18.2082 60.7588 16.1602C60.7588 14.1442 59.2868 12.9282 56.8548 12.9282H49.4308V19.4562Z" fill="#0044E1"/>
<path d="M38.1849 0.448242H42.6969L33.6409 13.7922V22.8482H29.9289V13.7922L21.1289 0.448242H25.5769L31.7849 10.2402L38.1849 0.448242Z" fill="#0044E1"/>
<path d="M11.744 23.296C8.256 23.296 5.44 22.208 3.264 20.032C1.088 17.888 0 15.072 0 11.648C0 8.224 1.088 5.44 3.296 3.264C5.472 1.088 8.288 0 11.712 0C15.008 0 17.792 1.152 20.064 3.456L17.568 5.76C16 4.192 14.112 3.424 11.84 3.424C9.44 3.424 7.52 4.192 6.016 5.696C4.512 7.232 3.776 9.216 3.776 11.648C3.776 14.08 4.512 16.064 6.016 17.568C7.52 19.104 9.44 19.872 11.84 19.872C14.176 19.872 16.192 19.072 17.824 17.472L20.224 19.968C17.952 22.176 15.136 23.296 11.744 23.296Z" fill="#0044E1"/>
</svg>
